<svg xmlns="http://www.w3.org/2000/svg" xmlns:xlink="http://www.w3.org/1999/xlink" width="1240" zoomAndPan="magnify" viewBox="0 0 930 179.999997" height="240" preserveAspectRatio="xMidYMid meet" version="1.0"><defs><g/></defs><g fill="#ff8a00" fill-opacity="1"><g transform="translate(0.805802, 198.58906)"><g><path d="M 107.40625 -165 L 107.40625 -132 L 49.59375 -132 L 49.59375 -99.203125 L 103 -99.203125 L 103 -66.203125 L 49.59375 -66.203125 L 49.59375 0 L 12 0 L 12 -165 Z M 107.40625 -165 "/></g></g></g><g fill="#ff8a00" fill-opacity="1"><g transform="translate(114.202748, 198.58906)"><g><path d="M 45.40625 -102.59375 L 45.40625 -53.796875 C 45.40625 -43.660156 46.9375 -36.457031 50 -32.1875 C 53.0625 -27.925781 58.257812 -25.796875 65.59375 -25.796875 C 72.925781 -25.796875 78.125 -27.925781 81.1875 -32.1875 C 84.257812 -36.457031 85.796875 -43.660156 85.796875 -53.796875 L 85.796875 -102.59375 L 121.203125 -102.59375 L 121.203125 -45.203125 C 121.203125 -28.128906 116.765625 -15.828125 107.890625 -8.296875 C 99.023438 -0.765625 84.925781 3 65.59375 3 C 46.257812 3 32.160156 -0.765625 23.296875 -8.296875 C 14.429688 -15.828125 10 -28.128906 10 -45.203125 L 10 -102.59375 Z M 45.40625 -102.59375 "/></g></g></g><g fill="#ff8a00" fill-opacity="1"><g transform="translate(245.399265, 198.58906)"><g><path d="M 12 0 L 12 -172 L 47.40625 -172 L 47.40625 0 Z M 12 0 "/></g></g></g><g fill="#ff8a00" fill-opacity="1"><g transform="translate(304.797669, 198.58906)"><g><path d="M 66.59375 -76.59375 C 59.925781 -76.59375 54.191406 -74.125 49.390625 -69.1875 C 44.597656 -64.257812 42.203125 -58.332031 42.203125 -51.40625 C 42.203125 -44.332031 44.597656 -38.328125 49.390625 -33.390625 C 54.191406 -28.460938 59.925781 -26 66.59375 -26 C 69.800781 -26 72.835938 -26.398438 75.703125 -27.203125 C 78.566406 -28.003906 80.664062 -28.800781 82 -29.59375 L 83.796875 -30.796875 L 95.796875 -6.203125 C 94.867188 -5.535156 93.570312 -4.703125 91.90625 -3.703125 C 90.238281 -2.703125 86.4375 -1.335938 80.5 0.390625 C 74.5625 2.128906 68.195312 3 61.40625 3 C 46.332031 3 33.09375 -2.296875 21.6875 -12.890625 C 10.289062 -23.492188 4.59375 -36.195312 4.59375 -51 C 4.59375 -65.9375 10.289062 -78.769531 21.6875 -89.5 C 33.09375 -100.226562 46.332031 -105.59375 61.40625 -105.59375 C 68.195312 -105.59375 74.457031 -104.789062 80.1875 -103.1875 C 85.925781 -101.59375 90 -100 92.40625 -98.40625 L 95.796875 -96 L 83.796875 -71.796875 C 79.398438 -74.992188 73.664062 -76.59375 66.59375 -76.59375 Z M 66.59375 -76.59375 "/></g></g></g><g fill="#ff8a00" fill-opacity="1"><g transform="translate(402.995066, 198.58906)"><g><path d="M 12 0 L 12 -102.59375 L 47.40625 -102.59375 L 47.40625 -87.796875 L 47.796875 -87.796875 C 48.066406 -88.328125 48.5 -88.992188 49.09375 -89.796875 C 49.695312 -90.597656 51 -92 53 -94 C 55 -96 57.128906 -97.796875 59.390625 -99.390625 C 61.660156 -100.992188 64.59375 -102.425781 68.1875 -103.6875 C 71.789062 -104.957031 75.460938 -105.59375 79.203125 -105.59375 C 83.066406 -105.59375 86.863281 -105.0625 90.59375 -104 C 94.332031 -102.9375 97.066406 -101.867188 98.796875 -100.796875 L 101.59375 -99.203125 L 86.796875 -69.203125 C 82.398438 -72.929688 76.269531 -74.796875 68.40625 -74.796875 C 64.132812 -74.796875 60.460938 -73.863281 57.390625 -72 C 54.328125 -70.132812 52.160156 -67.867188 50.890625 -65.203125 C 49.628906 -62.535156 48.734375 -60.265625 48.203125 -58.390625 C 47.671875 -56.523438 47.40625 -55.0625 47.40625 -54 L 47.40625 0 Z M 12 0 "/></g></g></g><g fill="#ff8a00" fill-opacity="1"><g transform="translate(502.592396, 198.58906)"><g><path d="M 45.40625 -102.59375 L 45.40625 -53.796875 C 45.40625 -43.660156 46.9375 -36.457031 50 -32.1875 C 53.0625 -27.925781 58.257812 -25.796875 65.59375 -25.796875 C 72.925781 -25.796875 78.125 -27.925781 81.1875 -32.1875 C 84.257812 -36.457031 85.796875 -43.660156 85.796875 -53.796875 L 85.796875 -102.59375 L 121.203125 -102.59375 L 121.203125 -45.203125 C 121.203125 -28.128906 116.765625 -15.828125 107.890625 -8.296875 C 99.023438 -0.765625 84.925781 3 65.59375 3 C 46.257812 3 32.160156 -0.765625 23.296875 -8.296875 C 14.429688 -15.828125 10 -28.128906 10 -45.203125 L 10 -102.59375 Z M 45.40625 -102.59375 "/></g></g></g><g fill="#ff8a00" fill-opacity="1"><g transform="translate(633.788921, 198.58906)"><g><path d="M 12 0 L 12 -102.59375 L 47.40625 -102.59375 L 47.40625 -91.796875 L 47.796875 -91.796875 C 56.992188 -100.992188 66.796875 -105.59375 77.203125 -105.59375 C 84.671875 -105.59375 91.671875 -104.0625 98.203125 -101 C 104.734375 -97.9375 109.664062 -93.203125 113 -86.796875 C 123.394531 -99.328125 134.726562 -105.59375 147 -105.59375 C 157.9375 -105.59375 167.335938 -102.523438 175.203125 -96.390625 C 183.066406 -90.265625 187 -80.664062 187 -67.59375 L 187 0 L 151.59375 0 L 151.59375 -58 C 151.59375 -63.46875 150.09375 -68.035156 147.09375 -71.703125 C 144.09375 -75.367188 139.59375 -77.203125 133.59375 -77.203125 C 128.394531 -77.203125 124.425781 -75.632812 121.6875 -72.5 C 118.957031 -69.363281 117.460938 -65.597656 117.203125 -61.203125 L 117.203125 0 L 81.796875 0 L 81.796875 -58 C 81.796875 -63.46875 80.296875 -68.035156 77.296875 -71.703125 C 74.296875 -75.367188 69.796875 -77.203125 63.796875 -77.203125 C 58.328125 -77.203125 54.226562 -75.5 51.5 -72.09375 C 48.769531 -68.695312 47.40625 -64.664062 47.40625 -60 L 47.40625 0 Z M 12 0 "/></g></g></g><g fill="#ff8a00" fill-opacity="1"><g transform="translate(830.783661, 198.58906)"><g><path d="M 56.59375 -105.59375 C 62.46875 -105.59375 68.269531 -104.925781 74 -103.59375 C 79.726562 -102.257812 83.992188 -100.925781 86.796875 -99.59375 L 91 -97.59375 L 79.40625 -74.40625 C 71.40625 -78.664062 63.800781 -80.796875 56.59375 -80.796875 C 52.59375 -80.796875 49.757812 -80.363281 48.09375 -79.5 C 46.425781 -78.632812 45.59375 -77 45.59375 -74.59375 C 45.59375 -74.0625 45.660156 -73.53125 45.796875 -73 C 45.929688 -72.46875 46.195312 -71.96875 46.59375 -71.5 C 47 -71.03125 47.367188 -70.628906 47.703125 -70.296875 C 48.035156 -69.960938 48.597656 -69.59375 49.390625 -69.1875 C 50.191406 -68.789062 50.828125 -68.492188 51.296875 -68.296875 C 51.765625 -68.097656 52.53125 -67.796875 53.59375 -67.390625 C 54.664062 -66.992188 55.46875 -66.695312 56 -66.5 C 56.53125 -66.300781 57.425781 -66 58.6875 -65.59375 C 59.957031 -65.195312 60.925781 -64.929688 61.59375 -64.796875 C 65.726562 -63.597656 69.328125 -62.265625 72.390625 -60.796875 C 75.460938 -59.328125 78.695312 -57.328125 82.09375 -54.796875 C 85.5 -52.265625 88.132812 -49.066406 90 -45.203125 C 91.863281 -41.335938 92.796875 -36.9375 92.796875 -32 C 92.796875 -8.664062 76.597656 3 44.203125 3 C 36.867188 3 29.898438 1.867188 23.296875 -0.390625 C 16.703125 -2.660156 11.9375 -4.929688 9 -7.203125 L 4.59375 -10.796875 L 19 -35 C 20.0625 -34.0625 21.457031 -32.957031 23.1875 -31.6875 C 24.925781 -30.425781 28.0625 -28.695312 32.59375 -26.5 C 37.132812 -24.300781 41.070312 -23.203125 44.40625 -23.203125 C 51.738281 -23.203125 55.40625 -25.664062 55.40625 -30.59375 C 55.40625 -32.863281 54.46875 -34.628906 52.59375 -35.890625 C 50.726562 -37.160156 47.5625 -38.59375 43.09375 -40.1875 C 38.632812 -41.789062 35.132812 -43.257812 32.59375 -44.59375 C 26.195312 -47.925781 21.128906 -51.691406 17.390625 -55.890625 C 13.660156 -60.097656 11.796875 -65.664062 11.796875 -72.59375 C 11.796875 -83 15.828125 -91.097656 23.890625 -96.890625 C 31.960938 -102.691406 42.863281 -105.59375 56.59375 -105.59375 Z M 56.59375 -105.59375 "/></g></g></g><g fill="#ff8a00" fill-opacity="1"><g transform="translate(877.532921, 103.886347)"><g><path d="M 2.09375 -55.90625 C 2.09375 -61.539062 4.078125 -66.359375 8.046875 -70.359375 C 12.015625 -74.359375 16.785156 -76.359375 22.359375 -76.359375 C 28.054688 -76.359375 32.890625 -74.359375 36.859375 -70.359375 C 40.828125 -66.359375 42.8125 -61.539062 42.8125 -55.90625 C 42.8125 -50.332031 40.828125 -45.5625 36.859375 -41.59375 C 32.890625 -37.625 28.054688 -35.640625 22.359375 -35.640625 C 16.785156 -35.640625 12.015625 -37.625 8.046875 -41.59375 C 4.078125 -45.5625 2.09375 -50.332031 2.09375 -55.90625 Z M 7.546875 -55.90625 C 7.546875 -51.84375 9 -48.359375 11.90625 -45.453125 C 14.8125 -42.546875 18.296875 -41.09375 22.359375 -41.09375 C 26.546875 -41.09375 30.09375 -42.53125 33 -45.40625 C 35.90625 -48.28125 37.359375 -51.78125 37.359375 -55.90625 C 37.359375 -60.03125 35.90625 -63.5625 33 -66.5 C 30.09375 -69.4375 26.546875 -70.90625 22.359375 -70.90625 C 18.296875 -70.90625 14.8125 -69.4375 11.90625 -66.5 C 9 -63.5625 7.546875 -60.03125 7.546875 -55.90625 Z M 16.1875 -65.453125 L 22.8125 -65.453125 C 24.632812 -65.453125 26.117188 -64.96875 27.265625 -64 C 28.421875 -63.03125 29 -61.664062 29 -59.90625 C 29 -57.175781 27.726562 -55.359375 25.1875 -54.453125 L 31.8125 -46.640625 L 26.1875 -46.640625 L 20.453125 -54.09375 L 20.453125 -46.640625 L 16.1875 -46.640625 Z M 20.453125 -57.09375 L 21 -57.09375 C 23.238281 -57.09375 24.359375 -57.910156 24.359375 -59.546875 C 24.359375 -61.242188 23.238281 -62.09375 21 -62.09375 L 20.453125 -62.09375 Z M 20.453125 -57.09375 "/></g></g></g></svg>