<svg xmlns="http://www.w3.org/2000/svg" xmlns:xlink="http://www.w3.org/1999/xlink" width="1240" zoomAndPan="magnify" viewBox="0 0 930 179.999997" height="240" preserveAspectRatio="xMidYMid meet" version="1.0"><defs><g/></defs><g fill="#ff8a00" fill-opacity="1"><g transform="translate(-6.601532, 183.784589)"><g><path d="M 109.125 -167.640625 L 109.125 -134.109375 L 50.390625 -134.109375 L 50.390625 -100.78125 L 104.65625 -100.78125 L 104.65625 -67.265625 L 50.390625 -67.265625 L 50.390625 0 L 12.1875 0 L 12.1875 -167.640625 Z M 109.125 -167.640625 "/></g></g></g><g fill="#ff8a00" fill-opacity="1"><g transform="translate(108.605324, 183.784589)"><g><path d="M 46.125 -104.25 L 46.125 -54.65625 C 46.125 -44.363281 47.679688 -37.050781 50.796875 -32.71875 C 53.910156 -28.382812 59.191406 -26.21875 66.640625 -26.21875 C 74.097656 -26.21875 79.382812 -28.382812 82.5 -32.71875 C 85.613281 -37.050781 87.171875 -44.363281 87.171875 -54.65625 L 87.171875 -104.25 L 123.140625 -104.25 L 123.140625 -45.921875 C 123.140625 -28.578125 118.632812 -16.078125 109.625 -8.421875 C 100.613281 -0.773438 86.285156 3.046875 66.640625 3.046875 C 47.003906 3.046875 32.679688 -0.773438 23.671875 -8.421875 C 14.660156 -16.078125 10.15625 -28.578125 10.15625 -45.921875 L 10.15625 -104.25 Z M 46.125 -104.25 "/></g></g></g><g fill="#ff8a00" fill-opacity="1"><g transform="translate(241.895823, 183.784589)"><g><path d="M 12.1875 0 L 12.1875 -174.75 L 48.15625 -174.75 L 48.15625 0 Z M 12.1875 0 "/></g></g></g><g fill="#ff8a00" fill-opacity="1"><g transform="translate(302.242268, 183.784589)"><g><path d="M 67.671875 -77.828125 C 60.890625 -77.828125 55.0625 -75.320312 50.1875 -70.3125 C 45.3125 -65.300781 42.875 -59.269531 42.875 -52.21875 C 42.875 -45.039062 45.3125 -38.945312 50.1875 -33.9375 C 55.0625 -28.925781 60.890625 -26.421875 67.671875 -26.421875 C 70.921875 -26.421875 74 -26.828125 76.90625 -27.640625 C 79.820312 -28.453125 81.957031 -29.265625 83.3125 -30.078125 L 85.140625 -31.296875 L 97.328125 -6.296875 C 96.378906 -5.617188 95.054688 -4.769531 93.359375 -3.75 C 91.671875 -2.738281 87.8125 -1.351562 81.78125 0.40625 C 75.757812 2.164062 69.296875 3.046875 62.390625 3.046875 C 47.078125 3.046875 33.628906 -2.335938 22.046875 -13.109375 C 10.460938 -23.878906 4.671875 -36.78125 4.671875 -51.8125 C 4.671875 -66.988281 10.460938 -80.03125 22.046875 -90.9375 C 33.628906 -101.84375 47.078125 -107.296875 62.390625 -107.296875 C 69.296875 -107.296875 75.660156 -106.484375 81.484375 -104.859375 C 87.304688 -103.234375 91.4375 -101.601562 93.875 -99.96875 L 97.328125 -97.53125 L 85.140625 -72.953125 C 80.671875 -76.203125 74.847656 -77.828125 67.671875 -77.828125 Z M 67.671875 -77.828125 "/></g></g></g><g fill="#ff8a00" fill-opacity="1"><g transform="translate(402.006926, 183.784589)"><g><path d="M 12.1875 0 L 12.1875 -104.25 L 48.15625 -104.25 L 48.15625 -89.203125 L 48.5625 -89.203125 C 48.832031 -89.742188 49.269531 -90.421875 49.875 -91.234375 C 50.488281 -92.046875 51.8125 -93.46875 53.84375 -95.5 C 55.875 -97.53125 58.039062 -99.359375 60.34375 -100.984375 C 62.65625 -102.617188 65.640625 -104.078125 69.296875 -105.359375 C 72.953125 -106.648438 76.675781 -107.296875 80.46875 -107.296875 C 84.394531 -107.296875 88.253906 -106.753906 92.046875 -105.671875 C 95.835938 -104.585938 98.613281 -103.503906 100.375 -102.421875 L 103.234375 -100.78125 L 88.1875 -70.3125 C 83.71875 -74.101562 77.488281 -76 69.5 -76 C 65.164062 -76 61.4375 -75.050781 58.3125 -73.15625 C 55.195312 -71.257812 52.992188 -68.957031 51.703125 -66.25 C 50.421875 -63.539062 49.507812 -61.234375 48.96875 -59.328125 C 48.425781 -57.429688 48.15625 -55.941406 48.15625 -54.859375 L 48.15625 0 Z M 12.1875 0 "/></g></g></g><g fill="#ff8a00" fill-opacity="1"><g transform="translate(503.193932, 183.784589)"><g><path d="M 46.125 -104.25 L 46.125 -54.65625 C 46.125 -44.363281 47.679688 -37.050781 50.796875 -32.71875 C 53.910156 -28.382812 59.191406 -26.21875 66.640625 -26.21875 C 74.097656 -26.21875 79.382812 -28.382812 82.5 -32.71875 C 85.613281 -37.050781 87.171875 -44.363281 87.171875 -54.65625 L 87.171875 -104.25 L 123.140625 -104.25 L 123.140625 -45.921875 C 123.140625 -28.578125 118.632812 -16.078125 109.625 -8.421875 C 100.613281 -0.773438 86.285156 3.046875 66.640625 3.046875 C 47.003906 3.046875 32.679688 -0.773438 23.671875 -8.421875 C 14.660156 -16.078125 10.15625 -28.578125 10.15625 -45.921875 L 10.15625 -104.25 Z M 46.125 -104.25 "/></g></g></g><g fill="#ff8a00" fill-opacity="1"><g transform="translate(636.484404, 183.784589)"><g><path d="M 12.1875 0 L 12.1875 -104.25 L 48.15625 -104.25 L 48.15625 -93.265625 L 48.5625 -93.265625 C 57.914062 -102.617188 67.875 -107.296875 78.4375 -107.296875 C 86.019531 -107.296875 93.128906 -105.734375 99.765625 -102.609375 C 106.410156 -99.492188 111.425781 -94.6875 114.8125 -88.1875 C 125.375 -100.925781 136.890625 -107.296875 149.359375 -107.296875 C 160.460938 -107.296875 170.007812 -104.175781 178 -97.9375 C 186 -91.707031 190 -81.957031 190 -68.6875 L 190 0 L 154.03125 0 L 154.03125 -58.921875 C 154.03125 -64.484375 152.503906 -69.125 149.453125 -72.84375 C 146.410156 -76.570312 141.835938 -78.4375 135.734375 -78.4375 C 130.453125 -78.4375 126.421875 -76.84375 123.640625 -73.65625 C 120.867188 -70.476562 119.347656 -66.65625 119.078125 -62.1875 L 119.078125 0 L 83.109375 0 L 83.109375 -58.921875 C 83.109375 -64.484375 81.582031 -69.125 78.53125 -72.84375 C 75.488281 -76.570312 70.921875 -78.4375 64.828125 -78.4375 C 59.265625 -78.4375 55.09375 -76.707031 52.3125 -73.25 C 49.539062 -69.800781 48.15625 -65.707031 48.15625 -60.96875 L 48.15625 0 Z M 12.1875 0 "/></g></g></g><g fill="#ff8a00" fill-opacity="1"><g transform="translate(836.623337, 183.784589)"><g><path d="M 57.5 -107.296875 C 63.46875 -107.296875 69.363281 -106.617188 75.1875 -105.265625 C 81.007812 -103.910156 85.34375 -102.550781 88.1875 -101.1875 L 92.453125 -99.15625 L 80.671875 -75.59375 C 72.546875 -79.925781 64.820312 -82.09375 57.5 -82.09375 C 53.4375 -82.09375 50.554688 -81.648438 48.859375 -80.765625 C 47.171875 -79.890625 46.328125 -78.234375 46.328125 -75.796875 C 46.328125 -75.253906 46.394531 -74.710938 46.53125 -74.171875 C 46.664062 -73.628906 46.9375 -73.117188 47.34375 -72.640625 C 47.75 -72.171875 48.117188 -71.765625 48.453125 -71.421875 C 48.796875 -71.085938 49.375 -70.71875 50.1875 -70.3125 C 51 -69.90625 51.640625 -69.597656 52.109375 -69.390625 C 52.585938 -69.191406 53.367188 -68.890625 54.453125 -68.484375 C 55.535156 -68.078125 56.347656 -67.769531 56.890625 -67.5625 C 57.429688 -67.363281 58.347656 -67.0625 59.640625 -66.65625 C 60.929688 -66.25 61.914062 -65.976562 62.59375 -65.84375 C 66.789062 -64.625 70.445312 -63.265625 73.5625 -61.765625 C 76.675781 -60.273438 79.957031 -58.242188 83.40625 -55.671875 C 86.863281 -53.097656 89.539062 -49.847656 91.4375 -45.921875 C 93.332031 -41.992188 94.28125 -37.523438 94.28125 -32.515625 C 94.28125 -8.804688 77.820312 3.046875 44.90625 3.046875 C 37.457031 3.046875 30.378906 1.894531 23.671875 -0.40625 C 16.960938 -2.707031 12.117188 -5.007812 9.140625 -7.3125 L 4.671875 -10.96875 L 19.296875 -35.5625 C 20.390625 -34.613281 21.816406 -33.492188 23.578125 -32.203125 C 25.335938 -30.921875 28.519531 -29.160156 33.125 -26.921875 C 37.726562 -24.691406 41.722656 -23.578125 45.109375 -23.578125 C 52.554688 -23.578125 56.28125 -26.082031 56.28125 -31.09375 C 56.28125 -33.394531 55.332031 -35.1875 53.4375 -36.46875 C 51.539062 -37.757812 48.320312 -39.21875 43.78125 -40.84375 C 39.25 -42.46875 35.695312 -43.957031 33.125 -45.3125 C 26.625 -48.695312 21.472656 -52.523438 17.671875 -56.796875 C 13.878906 -61.066406 11.984375 -66.722656 11.984375 -73.765625 C 11.984375 -84.328125 16.082031 -92.554688 24.28125 -98.453125 C 32.476562 -104.347656 43.550781 -107.296875 57.5 -107.296875 Z M 57.5 -107.296875 "/></g></g></g></svg>